<svg id="Layer_1" data-name="Layer 1" xmlns="http://www.w3.org/2000/svg" viewBox="0 0 390.7 319.7"><title>3-bed-2</title><path d="M202.7,167.2H415.8a35.5,35.5,0,0,0,0-71H202.7a35.5,35.5,0,0,0,0,71Zm0-53.3H415.8a17.8,17.8,0,0,1,0,35.6H202.7a17.8,17.8,0,1,1,0-35.6ZM96.1,96.1a35.5,35.5,0,1,0,35.5,35.5A35.51,35.51,0,0,0,96.1,96.1Zm0,53.3a17.8,17.8,0,1,1,17.8-17.8A17.78,17.78,0,0,1,96.1,149.4Zm319.8,71.1H202.7a35.5,35.5,0,0,0,0,71H415.8a35.5,35.5,0,0,0,.1-71Zm0,53.3H202.7a17.8,17.8,0,0,1,0-35.6H415.8a17.8,17.8,0,0,1,.1,35.6Zm0,71H202.7a35.5,35.5,0,1,0,0,71H415.8a35.5,35.5,0,0,0,.1-71Zm0,53.3H202.7a17.8,17.8,0,1,1,0-35.6H415.8a17.8,17.8,0,0,1,.1,35.6ZM96.1,220.5A35.5,35.5,0,1,0,131.6,256,35.51,35.51,0,0,0,96.1,220.5Zm0,53.3A17.8,17.8,0,1,1,113.9,256,17.78,17.78,0,0,1,96.1,273.8Zm0,71a35.5,35.5,0,1,0,35.5,35.5A35.51,35.51,0,0,0,96.1,344.8Zm0,53.3a17.8,17.8,0,1,1,17.8-17.8A17.84,17.84,0,0,1,96.1,398.1Z" transform="translate(-60.6 -96.1)"/></svg>